<svg width="32" height="32" viewBox="0 0 32 32" fill="none" xmlns="http://www.w3.org/2000/svg">
  <rect x="8" y="12" width="16" height="8" rx="2" fill="#10b981" stroke="#059669" stroke-width="1"/>
  <circle cx="16" cy="16" r="3" fill="#059669"/>
  <path d="M16 16 L12 8" stroke="#10b981" stroke-width="1.5" stroke-linecap="round"/>
  <path d="M16 16 L20 8" stroke="#10b981" stroke-width="1.5" stroke-linecap="round"/>
  <path d="M16 16 L24 12" stroke="#10b981" stroke-width="1.5" stroke-linecap="round"/>
  <path d="M16 16 L24 20" stroke="#10b981" stroke-width="1.5" stroke-linecap="round"/>
  <path d="M16 16 L20 24" stroke="#10b981" stroke-width="1.5" stroke-linecap="round"/>
  <path d="M16 16 L12 24" stroke="#10b981" stroke-width="1.5" stroke-linecap="round"/>
  <path d="M16 16 L8 20" stroke="#10b981" stroke-width="1.5" stroke-linecap="round"/>
  <path d="M16 16 L8 12" stroke="#10b981" stroke-width="1.5" stroke-linecap="round"/>
  <circle cx="12" cy="8" r="1.5" fill="#10b981"/>
  <circle cx="20" cy="8" r="1.5" fill="#10b981"/>
  <circle cx="24" cy="12" r="1.5" fill="#10b981"/>
  <circle cx="24" cy="20" r="1.5" fill="#10b981"/>
  <circle cx="20" cy="24" r="1.5" fill="#10b981"/>
  <circle cx="12" cy="24" r="1.5" fill="#10b981"/>
  <circle cx="8" cy="20" r="1.5" fill="#10b981"/>
  <circle cx="8" cy="12" r="1.5" fill="#10b981"/>
</svg>
